<svg width="16" height="16" viewBox="0 0 16 16" fill="none" xmlns="http://www.w3.org/2000/svg">
<g clip-path="url(#clip0_496_3687)">
<path d="M14.6667 7.99998C14.6667 11.6819 11.6819 14.6666 8.00001 14.6666M14.6667 7.99998C14.6667 4.31808 11.6819 1.33331 8.00001 1.33331M14.6667 7.99998H1.33334M8.00001 14.6666C4.31811 14.6666 1.33334 11.6819 1.33334 7.99998M8.00001 14.6666C9.66753 12.8411 10.6152 10.472 10.6667 7.99998C10.6152 5.528 9.66753 3.15888 8.00001 1.33331M8.00001 14.6666C6.33249 12.8411 5.38484 10.472 5.33334 7.99998C5.38484 5.528 6.33249 3.15888 8.00001 1.33331M1.33334 7.99998C1.33334 4.31808 4.31811 1.33331 8.00001 1.33331" stroke="#1E1E1E" stroke-width="1.6" stroke-linecap="round" stroke-linejoin="round"/>
</g>
<defs>
<clipPath id="clip0_496_3687">
<rect width="16" height="16" fill="white"/>
</clipPath>
</defs>
</svg>
