<svg width="50" height="50" viewBox="0 0 50 50" fill="none" xmlns="http://www.w3.org/2000/svg">
<circle cx="25" cy="25" r="25" fill="#AE2020"/>
<path d="M12.0103 16.8973C17.6044 16.8973 22.9693 19.1196 26.925 23.0752C30.8806 27.0308 33.1029 32.3958 33.1029 37.9899H38.9894C38.9894 34.447 38.2916 30.9387 36.9358 27.6654C35.5799 24.3922 33.5927 21.418 31.0874 18.9128C28.5822 16.4075 25.608 14.4202 22.3347 13.0644C19.0615 11.7086 15.5532 11.0107 12.0103 11.0107V16.8973Z" fill="white"/>
<path d="M29.6692 37.9895H24.2734C24.273 34.7373 22.9809 31.6183 20.6812 29.3186C18.3815 27.0189 15.2625 25.7268 12.0103 25.7264V20.3306C16.6936 20.331 21.185 22.1916 24.4966 25.5032C27.8082 28.8148 29.6688 33.3062 29.6692 37.9895Z" fill="white"/>
<path d="M15.4711 37.9896C17.382 37.9896 18.931 36.4406 18.931 34.5297C18.931 32.6189 17.382 31.0698 15.4711 31.0698C13.5603 31.0698 12.0112 32.6189 12.0112 34.5297C12.0112 36.4406 13.5603 37.9896 15.4711 37.9896Z" fill="white"/>
</svg>
