<svg width="194" height="216" viewBox="0 0 194 216" fill="none" xmlns="http://www.w3.org/2000/svg">
<rect x="0.923828" y="0.609375" width="211.569" height="215.392" rx="5" fill="white"/>
<g filter="url(#filter0_d)">
<path d="M22.5898 156.218C22.5898 153.336 24.9431 151 27.846 151H187.634C190.537 151 192.89 153.336 192.89 156.218V183.349C192.89 186.23 190.537 188.566 187.634 188.566H27.846C24.9431 188.566 22.5898 186.23 22.5898 183.349V156.218Z" fill="white"/>
</g>
<rect x="60" y="173" width="73" height="6" rx="3" fill="#E7E7E7"/>
<rect x="60" y="160" width="60" height="6" rx="3" fill="#E7E7E7"/>
<path d="M52.0565 164.726C52.0435 163.748 51.8603 162.78 51.5153 161.864C51.2161 161.092 50.7591 160.391 50.1735 159.805C49.5879 159.219 48.8866 158.762 48.1143 158.463C47.2106 158.124 46.2559 157.94 45.2908 157.921C44.0482 157.865 43.6542 157.85 40.5 157.85C37.3457 157.85 36.9414 157.85 35.7079 157.921C34.7432 157.941 33.7889 158.124 32.8856 158.463C32.1133 158.762 31.4118 159.219 30.8262 159.805C30.2406 160.39 29.7836 161.092 29.4846 161.864C29.1447 162.767 28.9617 163.722 28.9434 164.686C28.8879 165.93 28.8711 166.324 28.8711 169.478C28.8711 172.633 28.8711 173.036 28.9434 174.271C28.9628 175.237 29.1449 176.19 29.4846 177.095C29.7841 177.868 30.2414 178.569 30.8272 179.154C31.4131 179.739 32.1146 180.196 32.8869 180.495C33.7877 180.848 34.7422 181.045 35.7092 181.076C36.9531 181.132 37.347 181.149 40.5013 181.149C43.6555 181.149 44.0598 181.149 45.2933 181.076C46.2584 181.057 47.2132 180.874 48.1169 180.535C48.8889 180.236 49.5901 179.778 50.1756 179.193C50.7612 178.607 51.2183 177.906 51.5179 177.134C51.8576 176.23 52.0397 175.277 52.0591 174.309C52.1146 173.067 52.1314 172.673 52.1314 169.517C52.1288 166.363 52.1288 165.963 52.0565 164.726ZM40.4922 175.443C37.1933 175.443 34.5208 172.771 34.5208 169.472C34.5208 166.173 37.1933 163.501 40.4922 163.501C42.0759 163.501 43.5948 164.13 44.7146 165.25C45.8345 166.369 46.4636 167.888 46.4636 169.472C46.4636 171.056 45.8345 172.575 44.7146 173.694C43.5948 174.814 42.0759 175.443 40.4922 175.443ZM46.7013 164.672C45.9301 164.672 45.3088 164.05 45.3088 163.28C45.3088 163.097 45.3448 162.916 45.4148 162.747C45.4847 162.578 45.5872 162.425 45.7165 162.296C45.8457 162.166 45.9991 162.064 46.168 161.994C46.3369 161.924 46.5178 161.888 46.7006 161.888C46.8834 161.888 47.0644 161.924 47.2332 161.994C47.4021 162.064 47.5555 162.166 47.6847 162.296C47.814 162.425 47.9165 162.578 47.9864 162.747C48.0564 162.916 48.0924 163.097 48.0924 163.28C48.0924 164.05 47.4698 164.672 46.7013 164.672Z" fill="#E33863"/>
<path d="M40.4922 173.351C42.6345 173.351 44.3711 171.614 44.3711 169.472C44.3711 167.33 42.6345 165.593 40.4922 165.593C38.35 165.593 36.6133 167.33 36.6133 169.472C36.6133 171.614 38.35 173.351 40.4922 173.351Z" fill="#E33863"/>
<g filter="url(#filter1_d)">
<path d="M63.375 95.0418C63.375 92.1602 65.7283 89.8242 68.6312 89.8242H228.419C231.322 89.8242 233.675 92.1602 233.675 95.0418V122.173C233.675 125.055 231.322 127.39 228.419 127.39H68.6312C65.7283 127.39 63.375 125.055 63.375 122.173V95.0418Z" fill="white"/>
</g>
<rect x="106.887" y="102.25" width="117.255" height="6.37255" rx="3.18627" fill="#E7E7E7"/>
<path d="M93.8333 96.875H73.1667C72.8241 96.875 72.4956 97.0111 72.2533 97.2533C72.0111 97.4956 71.875 97.8241 71.875 98.1667V118.833C71.875 119.176 72.0111 119.504 72.2533 119.747C72.4956 119.989 72.8241 120.125 73.1667 120.125H84.2944V111.135H81.2745V107.615H84.2944V105.032C84.2944 102.029 86.1285 100.392 88.8152 100.392C89.7181 100.39 90.6222 100.436 91.5212 100.53V103.656H89.6677C88.2107 103.656 87.9265 104.351 87.9265 105.368V107.609H91.4102L90.9581 111.129H87.9252V120.125H93.8333C94.1759 120.125 94.5044 119.989 94.7467 119.747C94.9889 119.504 95.125 119.176 95.125 118.833V98.1667C95.125 97.8241 94.9889 97.4956 94.7467 97.2533C94.5044 97.0111 94.1759 96.875 93.8333 96.875Z" fill="#3D599B"/>
<g filter="url(#filter2_d)">
<path d="M46.8066 33.866C46.8066 30.9844 49.1599 28.6484 52.0628 28.6484H211.851C214.754 28.6484 217.107 30.9844 217.107 33.866V60.9972C217.107 63.8787 214.754 66.2147 211.851 66.2147H52.0628C49.1599 66.2147 46.8066 63.8787 46.8066 60.9972V33.866Z" fill="white"/>
</g>
<rect x="88" y="52.002" width="54" height="6" rx="3" fill="#E7E7E7"/>
<rect x="88" y="39.002" width="117" height="6" rx="3" fill="#E7E7E7"/>
<path d="M77.8333 35.875H57.1667C56.8241 35.875 56.4956 36.0111 56.2533 36.2533C56.0111 36.4956 55.875 36.8241 55.875 37.1667V57.8333C55.875 58.1759 56.0111 58.5044 56.2533 58.7467C56.4956 58.9889 56.8241 59.125 57.1667 59.125H77.8333C78.1759 59.125 78.5044 58.9889 78.7467 58.7467C78.9889 58.5044 79.125 58.1759 79.125 57.8333V37.1667C79.125 36.8241 78.9889 36.4956 78.7467 36.2533C78.5044 36.0111 78.1759 35.875 77.8333 35.875ZM75.1906 41.384L73.9428 42.5787C73.8901 42.6189 73.8495 42.6729 73.8253 42.7346C73.8012 42.7963 73.7945 42.8635 73.8059 42.9288V51.7134C73.7945 51.7787 73.8012 51.8459 73.8253 51.9076C73.8495 51.9694 73.8901 52.0233 73.9428 52.0635L75.1596 53.2595V53.523H69.0358V53.2595L70.2978 52.035C70.423 51.911 70.423 51.8736 70.423 51.685V44.5834L66.9149 53.4907H66.4395L62.3566 44.5834V50.5535C62.3405 50.6776 62.3525 50.8037 62.3919 50.9224C62.4312 51.0412 62.4969 51.1495 62.5839 51.2394L64.2256 53.2298V53.492H59.5705V53.2298L61.2122 51.2394C61.2986 51.1495 61.3627 51.0407 61.3995 50.9216C61.4363 50.8025 61.4447 50.6764 61.424 50.5535V43.6508C61.4337 43.5563 61.4209 43.4609 61.3868 43.3723C61.3527 43.2836 61.2982 43.2043 61.2277 43.1406L59.7681 41.384V41.1217H64.2967L67.7971 48.7981L70.8738 41.1217H75.1919V41.384H75.1906Z" fill="#12100E"/>
<defs>
<filter id="filter0_d" x="12.5898" y="145" width="190.3" height="57.5663" filterUnits="userSpaceOnUse" color-interpolation-filters="sRGB">
<feFlood flood-opacity="0" result="BackgroundImageFix"/>
<feColorMatrix in="SourceAlpha" type="matrix" values="0 0 0 0 0 0 0 0 0 0 0 0 0 0 0 0 0 0 127 0"/>
<feOffset dy="4"/>
<feGaussianBlur stdDeviation="5"/>
<feColorMatrix type="matrix" values="0 0 0 0 0 0 0 0 0 0 0 0 0 0 0 0 0 0 0.1 0"/>
<feBlend mode="normal" in2="BackgroundImageFix" result="effect1_dropShadow"/>
<feBlend mode="normal" in="SourceGraphic" in2="effect1_dropShadow" result="shape"/>
</filter>
<filter id="filter1_d" x="53.375" y="83.8242" width="190.3" height="57.5663" filterUnits="userSpaceOnUse" color-interpolation-filters="sRGB">
<feFlood flood-opacity="0" result="BackgroundImageFix"/>
<feColorMatrix in="SourceAlpha" type="matrix" values="0 0 0 0 0 0 0 0 0 0 0 0 0 0 0 0 0 0 127 0"/>
<feOffset dy="4"/>
<feGaussianBlur stdDeviation="5"/>
<feColorMatrix type="matrix" values="0 0 0 0 0 0 0 0 0 0 0 0 0 0 0 0 0 0 0.1 0"/>
<feBlend mode="normal" in2="BackgroundImageFix" result="effect1_dropShadow"/>
<feBlend mode="normal" in="SourceGraphic" in2="effect1_dropShadow" result="shape"/>
</filter>
<filter id="filter2_d" x="36.8066" y="22.6484" width="190.3" height="57.5663" filterUnits="userSpaceOnUse" color-interpolation-filters="sRGB">
<feFlood flood-opacity="0" result="BackgroundImageFix"/>
<feColorMatrix in="SourceAlpha" type="matrix" values="0 0 0 0 0 0 0 0 0 0 0 0 0 0 0 0 0 0 127 0"/>
<feOffset dy="4"/>
<feGaussianBlur stdDeviation="5"/>
<feColorMatrix type="matrix" values="0 0 0 0 0 0 0 0 0 0 0 0 0 0 0 0 0 0 0.1 0"/>
<feBlend mode="normal" in2="BackgroundImageFix" result="effect1_dropShadow"/>
<feBlend mode="normal" in="SourceGraphic" in2="effect1_dropShadow" result="shape"/>
</filter>
</defs>
</svg>
