<svg width="48" height="48" viewBox="0 0 48 48" fill="none" xmlns="http://www.w3.org/2000/svg">
<path d="M30.6502 43.9394H29.3438C29.0628 43.9394 28.8352 43.7117 28.8352 43.4308C28.8352 43.1499 29.0628 42.9222 29.3438 42.9222H30.2938C30.5295 42.2581 30.7408 41.5723 30.923 40.8788C31.0761 40.294 31.2118 39.6968 31.3261 39.1042C31.9031 36.1317 32.0648 32.7946 31.8069 29.185C31.5154 25.1284 30.6949 20.6954 29.3681 16.0095C29.1274 15.1598 28.8678 14.2933 28.5965 13.4339C26.8472 7.90304 24.8704 3.50667 23.9995 1.67043C23.1287 3.50667 21.1522 7.90304 19.4037 13.434C19.1328 14.2918 18.8732 15.1583 18.6321 16.0095C17.3054 20.6953 16.4849 25.1279 16.1935 29.184C15.9353 32.7938 16.097 36.1313 16.674 39.1036C16.7896 39.7012 16.9252 40.298 17.0772 40.8778C17.2591 41.5712 17.4703 42.2573 17.7063 42.9222H18.6563C18.9372 42.9222 19.1649 43.1499 19.1649 43.4308C19.1649 43.7117 18.9372 43.9394 18.6563 43.9394H17.35C17.1374 43.9394 16.9472 43.8072 16.8732 43.6079C16.5765 42.8093 16.3141 41.9777 16.0934 41.1359C15.9357 40.5346 15.795 39.9159 15.6754 39.297C15.0814 36.2375 14.9144 32.8103 15.1788 29.1112C15.4753 24.986 16.3078 20.4847 17.6534 15.7323C17.8972 14.8714 18.1598 13.995 18.4337 13.1275C20.7722 5.72998 23.5194 0.330506 23.5469 0.276795C23.6337 0.106913 23.8086 0 23.9994 0C24.1903 0 24.3651 0.106913 24.4522 0.276896C24.4798 0.330607 27.2268 5.72998 29.5664 13.1274C29.8408 13.9967 30.1033 14.8731 30.3467 15.7324C31.6924 20.4848 32.5249 24.9865 32.8214 29.1123C33.0858 32.8111 32.9186 36.2379 32.3246 39.2975C32.2062 39.9112 32.0657 40.5302 31.9069 41.1369C31.6855 41.9791 31.4232 42.8104 31.127 43.6079C31.0531 43.8072 30.8629 43.9394 30.6502 43.9394Z" fill="white"/>
<path d="M10.3158 43.3354C10.2197 43.3354 10.1245 43.3081 10.0419 43.2553C9.91853 43.1765 9.83501 43.0481 9.81304 42.9033C9.23178 39.0859 9.95668 35.4708 11.9092 32.4489C13.3947 30.1498 15.0786 28.9445 15.4011 28.7262C15.4103 28.72 15.4195 28.7141 15.429 28.7086C15.6611 28.5535 15.9694 28.6183 16.1264 28.8493C16.2836 29.0803 16.2191 29.3988 15.9894 29.5577C15.9894 29.5577 15.9796 29.5644 15.9599 29.5764C15.7317 29.7326 14.1453 30.8625 12.7636 33.001C11.0202 35.6992 10.3408 38.7824 10.7408 42.1738L16.4436 40.5184C16.4473 40.5174 16.4509 40.5163 16.4546 40.5154L16.4716 40.5109C16.7431 40.439 17.0216 40.6002 17.0939 40.8716C17.1661 41.143 17.0046 41.4216 16.7332 41.494L16.7217 41.497L10.4577 43.3154C10.4111 43.3287 10.3634 43.3354 10.3158 43.3354Z" fill="white"/>
<path d="M37.6844 43.3355C37.6369 43.3355 37.5892 43.3289 37.5426 43.3154L31.2732 41.4967C31.2697 41.4956 31.2663 41.4946 31.2628 41.4935L31.2447 41.4878C30.9766 41.4039 30.8273 41.1184 30.9114 40.8504C30.9954 40.5821 31.2813 40.4332 31.5488 40.517L31.5617 40.5211L37.2594 42.174C37.6586 38.7853 36.9802 35.7039 35.2396 33.0075C33.8556 30.8634 32.2549 29.7247 32.0368 29.5754C32.0183 29.5638 32.0098 29.558 32.0098 29.558C31.7787 29.4 31.7165 29.0836 31.8733 28.8517C32.0292 28.621 32.3395 28.5574 32.5719 28.7102C32.5786 28.7144 32.5936 28.7237 32.5999 28.7281C32.9236 28.9479 34.6128 30.1609 36.0943 32.4558C38.0438 35.4761 38.7676 39.0889 38.1873 42.9035C38.1652 43.0484 38.0818 43.1766 37.9583 43.2556C37.8758 43.3083 37.7806 43.3355 37.6844 43.3355Z" fill="white"/>
<path d="M23.9997 14.7599C22.1792 14.7599 20.4064 14.4212 18.7306 13.7532C18.4697 13.6493 18.3424 13.3534 18.4465 13.0924C18.5504 12.8315 18.8462 12.7043 19.1073 12.8083C20.6629 13.4283 22.3089 13.7427 23.9998 13.7427C25.6913 13.7427 27.3379 13.4283 28.8934 12.8083C29.1548 12.7041 29.4502 12.8316 29.5542 13.0924C29.6581 13.3534 29.5309 13.6493 29.27 13.7532C27.5941 14.4213 25.8208 14.7599 23.9997 14.7599Z" fill="white"/>
<path d="M27.9244 16.9827C27.6955 16.9827 27.4877 16.8273 27.4307 16.5951C27.3639 16.3222 27.5308 16.0469 27.8037 15.98C28.4371 15.8249 29.0671 15.6283 29.6762 15.3959C29.9383 15.2956 30.2327 15.4274 30.3328 15.6898C30.4329 15.9523 30.3012 16.2461 30.0388 16.3463C29.3904 16.5937 28.7198 16.8029 28.0458 16.9681C28.0052 16.978 27.9645 16.9827 27.9244 16.9827Z" fill="white"/>
<path d="M26.1111 17.3002C25.8609 17.3002 25.6428 17.1156 25.6079 16.8609C25.5695 16.5826 25.764 16.3259 26.0423 16.2877C26.1829 16.2684 26.3228 16.2472 26.462 16.2242C26.7397 16.1782 27.0009 16.3662 27.0466 16.6434C27.0923 16.9206 26.9046 17.1823 26.6275 17.228C26.4793 17.2524 26.3305 17.2749 26.181 17.2955C26.1575 17.2986 26.1341 17.3002 26.1111 17.3002Z" fill="white"/>
<path d="M23.9996 17.4542C21.9185 17.4542 19.8869 17.0814 17.9614 16.3462C17.6989 16.246 17.5674 15.952 17.6677 15.6896C17.7679 15.4271 18.0618 15.2957 18.3243 15.3959C20.1335 16.0867 22.043 16.437 23.9997 16.437C24.2053 16.437 24.4139 16.433 24.62 16.4251C24.9017 16.4144 25.1369 16.6333 25.1476 16.914C25.1583 17.1946 24.9395 17.4309 24.6588 17.4416C24.4397 17.4499 24.218 17.4542 23.9996 17.4542Z" fill="white"/>
<path d="M23.9996 40.873C21.1501 40.873 18.832 38.5549 18.832 35.7055C18.832 32.8567 21.1501 30.5391 23.9996 30.5391C24.8597 30.5391 25.7116 30.7548 26.4631 31.1629C26.7099 31.297 26.8014 31.6059 26.6673 31.8526C26.5334 32.0994 26.2245 32.191 25.9777 32.0569C25.3746 31.7295 24.6907 31.5563 23.9996 31.5563C21.7111 31.5563 19.8493 33.4176 19.8493 35.7055C19.8493 37.994 21.7111 39.8558 23.9996 39.8558C26.2881 39.8558 28.1499 37.994 28.1499 35.7055C28.1499 34.5973 27.7181 33.5554 26.9343 32.7717C26.7357 32.5732 26.7357 32.2511 26.9342 32.0524C27.1329 31.8538 27.4549 31.8537 27.6535 32.0524C28.6296 33.0283 29.1671 34.3257 29.1671 35.7056C29.1672 38.5548 26.8491 40.873 23.9996 40.873Z" fill="white"/>
<path d="M23.9996 29.1642C21.1501 29.1642 18.832 26.8461 18.832 23.9966C18.832 21.1472 21.1501 18.8291 23.9996 18.8291C24.8145 18.8291 25.6264 19.0238 26.3473 19.392C26.5974 19.5198 26.6967 19.8262 26.569 20.0764C26.4411 20.3266 26.1347 20.4257 25.8845 20.2979C25.2979 19.9983 24.6637 19.8464 23.9996 19.8464C21.7111 19.8464 19.8493 21.7081 19.8493 23.9966C19.8493 26.2852 21.7111 28.1469 23.9996 28.1469C26.2881 28.1469 28.1499 26.2852 28.1499 23.9966C28.1499 22.888 27.7181 21.8457 26.9343 21.0619C26.7357 20.8632 26.7357 20.5412 26.9342 20.3426C27.1329 20.144 27.4551 20.144 27.6535 20.3426C28.6296 21.3185 29.1671 22.6162 29.1671 23.9966C29.1672 26.8461 26.8491 29.1642 23.9996 29.1642Z" fill="white"/>
<path d="M30.8651 47.9999H17.1351C16.9682 47.9999 16.8121 47.9182 16.7171 47.7811C16.6221 47.6441 16.6003 47.4691 16.6588 47.3129L18.1801 43.2523C18.2544 43.0538 18.4443 42.9221 18.6564 42.9221H29.3439C29.556 42.9221 29.7458 43.0537 29.8203 43.2523L31.3416 47.3129C31.4001 47.4691 31.3782 47.644 31.2833 47.7811C31.1881 47.9182 31.032 47.9999 30.8651 47.9999ZM17.8687 46.9827H30.1314L28.9912 43.9394H19.0089L17.8687 46.9827Z" fill="white"/>
<path d="M23.9996 27.5999C23.0371 27.5999 22.1322 27.2251 21.4516 26.5445C20.7711 25.864 20.3962 24.9591 20.3962 23.9966C20.3962 23.0341 20.7711 22.1293 21.4516 21.4487C22.1322 20.7682 23.037 20.3933 23.9996 20.3933C24.9621 20.3933 25.8669 20.7682 26.5474 21.4487C27.2279 22.1293 27.6028 23.0341 27.6028 23.9966C27.6028 24.9591 27.2279 25.864 26.5474 26.5445C25.8669 27.2251 24.9621 27.5999 23.9996 27.5999ZM23.9996 21.4119C23.3373 21.4119 22.6751 21.664 22.1709 22.1681C21.1626 23.1764 21.1626 24.817 22.1709 25.8252C23.1792 26.8336 24.8199 26.8335 25.8282 25.8252C26.8364 24.8169 26.8364 23.1763 25.8282 22.1681C25.324 21.664 24.6619 21.4119 23.9996 21.4119Z" fill="white"/>
<path d="M23.9995 39.3099C22.0127 39.3099 20.3962 37.693 20.3962 35.7056C20.3962 33.7187 22.0127 32.1023 23.9995 32.1023C25.9864 32.1023 27.6027 33.7187 27.6027 35.7056C27.6028 37.693 25.9864 39.3099 23.9995 39.3099ZM23.9995 33.1195C22.5735 33.1195 21.4135 34.2796 21.4135 35.7056C21.4135 37.1321 22.5736 38.2927 23.9995 38.2927C25.4253 38.2927 26.5854 37.1321 26.5854 35.7056C26.5855 34.2796 25.4254 33.1195 23.9995 33.1195Z" fill="white"/>
</svg>
