<svg width="31" height="30" viewBox="0 0 31 30" fill="none" xmlns="http://www.w3.org/2000/svg">
<g opacity="0.3">
<path d="M25 26.25L17.125 18.375C16.5 18.875 15.7812 19.2708 14.9687 19.5625C14.1562 19.8542 13.2917 20 12.375 20C10.1042 20 8.18229 19.2135 6.60938 17.6406C5.03646 16.0677 4.25 14.1458 4.25 11.875C4.25 9.60417 5.03646 7.68229 6.60938 6.10938C8.18229 4.53646 10.1042 3.75 12.375 3.75C14.6458 3.75 16.5677 4.53646 18.1406 6.10938C19.7135 7.68229 20.5 9.60417 20.5 11.875C20.5 12.7917 20.3542 13.6562 20.0625 14.4687C19.7708 15.2812 19.375 16 18.875 16.625L26.75 24.5L25 26.25ZM12.375 17.5C13.9375 17.5 15.2656 16.9531 16.3594 15.8594C17.4531 14.7656 18 13.4375 18 11.875C18 10.3125 17.4531 8.98438 16.3594 7.89062C15.2656 6.79688 13.9375 6.25 12.375 6.25C10.8125 6.25 9.48438 6.79688 8.39062 7.89062C7.29688 8.98438 6.75 10.3125 6.75 11.875C6.75 13.4375 7.29688 14.7656 8.39062 15.8594C9.48438 16.9531 10.8125 17.5 12.375 17.5Z" fill="#1D1B20"/>
</g>
</svg>
