<svg width="16" height="16" viewBox="0 0 16 16" fill="none" xmlns="http://www.w3.org/2000/svg">
<g clip-path="url(#clip0_869_5630)">
<path d="M14.6663 7.99999C14.6663 11.6819 11.6816 14.6667 7.99967 14.6667M14.6663 7.99999C14.6663 4.3181 11.6816 1.33333 7.99967 1.33333M14.6663 7.99999H1.33301M7.99967 14.6667C4.31778 14.6667 1.33301 11.6819 1.33301 7.99999M7.99967 14.6667C9.66719 12.8411 10.6148 10.472 10.6663 7.99999C10.6148 5.52802 9.66719 3.1589 7.99967 1.33333M7.99967 14.6667C6.33215 12.8411 5.38451 10.472 5.33301 7.99999C5.38451 5.52802 6.33215 3.1589 7.99967 1.33333M1.33301 7.99999C1.33301 4.3181 4.31778 1.33333 7.99967 1.33333" stroke="white" stroke-width="1.6" stroke-linecap="round" stroke-linejoin="round"/>
</g>
<defs>
<clipPath id="clip0_869_5630">
<rect width="16" height="16" fill="white"/>
</clipPath>
</defs>
</svg>
