<svg xmlns="http://www.w3.org/2000/svg" xmlns:xlink="http://www.w3.org/1999/xlink" viewBox="0,0,256,256" width="48px" height="48px" fill-rule="nonzero"><g fill="#ffffff" fill-rule="nonzero" stroke="none" stroke-width="1" stroke-linecap="butt" stroke-linejoin="miter" stroke-miterlimit="10" stroke-dasharray="" stroke-dashoffset="0" font-family="none" font-weight="none" font-size="none" text-anchor="none" style="mix-blend-mode: normal"><g transform="scale(5.33333,5.33333)"><path d="M24,4c-11.02771,0 -20,8.97229 -20,20c0,11.02771 8.97229,20 20,20c11.02771,0 20,-8.97229 20,-20c0,-0.94059 -0.08449,-1.83922 -0.20117,-2.70117c-0.10073,-0.74382 -0.73572,-1.2987 -1.48633,-1.29883h-17.8125c-0.82839,0.00008 -1.49992,0.67161 -1.5,1.5v6c0.00008,0.82839 0.67161,1.49992 1.5,1.5h9.14063c-1.82877,3.5219 -5.38312,6 -9.64062,6c-6.09345,0 -11,-4.90655 -11,-11c0,-6.09345 4.90655,-11 11,-11c2.79352,0 5.31613,1.04896 7.26172,2.76758c0.59401,0.52367 1.49275,0.49545 2.05273,-0.06445l4.24414,-4.24219c0.28904,-0.28869 0.44784,-0.68276 0.43973,-1.09119c-0.00811,-0.40843 -0.18243,-0.79589 -0.4827,-1.07287c-3.5517,-3.27741 -8.30042,-5.29687 -13.51562,-5.29687zM24,7c3.87668,0 7.38243,1.35588 10.23438,3.54297l-2.22461,2.22266c-2.28575,-1.6381 -4.98149,-2.76562 -8.00977,-2.76562c-4.85551,0 -9.136,2.49466 -11.64844,6.26367l-2.40234,-1.83789c3.05717,-4.48352 8.20089,-7.42578 14.05078,-7.42578zM8.49023,17.08789l2.48047,1.89648c-0.60453,1.56251 -0.9707,3.24341 -0.9707,5.01563c0,1.77221 0.36617,3.45312 0.9707,5.01563l-2.48047,1.89648c-0.94156,-2.11443 -1.49023,-4.44348 -1.49023,-6.91211c0,-2.46863 0.54867,-4.79768 1.49023,-6.91211zM26,23h14.92383c0.02345,0.33231 0.07617,0.66964 0.07617,1c0,4.24286 -1.60067,8.06825 -4.16016,11.04297l-2.3418,-2.0293c1.28272,-1.49271 2.37002,-3.15341 2.93555,-5.09375c0.13207,-0.45314 0.04318,-0.94202 -0.23996,-1.31967c-0.28314,-0.37764 -0.7275,-0.60001 -1.1995,-0.60026h-9.99414zM12.35156,31.73633c2.51244,3.76901 6.79293,6.26367 11.64844,6.26367c3.15623,0 6.06642,-1.05621 8.41016,-2.82617l2.26758,1.9668c-2.9237,2.37742 -6.6055,3.85938 -10.67773,3.85938c-5.84989,0 -10.99361,-2.94226 -14.05078,-7.42578z"></path></g></g></svg>