<svg width="50" height="50" viewBox="0 0 50 50" fill="none" xmlns="http://www.w3.org/2000/svg">
<rect width="50" height="50" rx="25" fill="#EC9812"/>
<path d="M12.2812 17.8314C17.5557 17.8314 22.6141 19.9267 26.3437 23.6563C30.0733 27.3859 32.1686 32.4443 32.1686 37.7187H37.7188C37.7188 34.3782 37.0608 31.0705 35.7824 27.9842C34.5041 24.898 32.6304 22.0938 30.2683 19.7317C27.9062 17.3696 25.102 15.4959 22.0158 14.2176C18.9295 12.9392 15.6218 12.2812 12.2812 12.2812V17.8314Z" fill="white"/>
<path d="M28.9311 37.7187H23.8436C23.8433 34.6523 22.625 31.7116 20.4567 29.5433C18.2884 27.375 15.3477 26.1567 12.2812 26.1563V21.0688C16.697 21.0692 20.9317 22.8235 24.0541 25.9459C27.1765 29.0683 28.9308 33.303 28.9311 37.7187Z" fill="white"/>
<path d="M15.5442 37.7187C17.3458 37.7187 18.8064 36.2582 18.8064 34.4565C18.8064 32.6549 17.3458 31.1943 15.5442 31.1943C13.7425 31.1943 12.282 32.6549 12.282 34.4565C12.282 36.2582 13.7425 37.7187 15.5442 37.7187Z" fill="white"/>
</svg>
