<svg xmlns="http://www.w3.org/2000/svg" width="16" height="16" fill="none" aria-hidden="true" class="MuiSvgIcon-root MuiSvgIcon-fontSizeSmall mui-thedpn" color="#424242"><path fill="currentColor" d="M7.807 11.993A3.995 3.995 0 0 1 4 8c0-2.207 1.793-4 4-4a3.996 3.996 0 0 1 3.993 3.807l-1.4-.42a2.667 2.667 0 1 0-3.206 3.206l.42 1.4ZM14.667 8c0 .2-.007.4-.027.6l-1.313-.393c.006-.067.006-.14.006-.207A5.332 5.332 0 0 0 8 2.667 5.332 5.332 0 0 0 2.667 8 5.332 5.332 0 0 0 8 13.333c.067 0 .14 0 .207-.006L8.6 14.64A6.67 6.67 0 0 1 1.333 8 6.67 6.67 0 0 1 8 1.333 6.669 6.669 0 0 1 14.667 8Zm-2.514 2.84 2.514-.84L8 8l2 6.667.84-2.514L13.687 15l1.32-1.32-2.854-2.84Z"/></svg>